<svg width="400" height="186" viewBox="0 0 400 186" fill="none" xmlns="http://www.w3.org/2000/svg">
<rect x="1.5" y="1.5" width="397" height="183" stroke="#DC9271" stroke-width="3"/>
<path d="M126.461 112.25V102.172L126.578 100.547H127.844V112.25H126.461ZM121.742 105.18V104.391C121.742 103.693 121.807 103.094 121.938 102.594C122.068 102.089 122.255 101.674 122.5 101.352C122.745 101.023 123.044 100.781 123.398 100.625C123.753 100.469 124.156 100.391 124.609 100.391C125.047 100.391 125.424 100.479 125.742 100.656C126.065 100.833 126.336 101.091 126.555 101.43C126.773 101.763 126.945 102.169 127.07 102.648C127.195 103.122 127.279 103.659 127.32 104.258V105.312C127.273 105.906 127.188 106.44 127.062 106.914C126.938 107.388 126.766 107.792 126.547 108.125C126.328 108.458 126.057 108.714 125.734 108.891C125.411 109.068 125.031 109.156 124.594 109.156C124.151 109.156 123.753 109.076 123.398 108.914C123.049 108.747 122.75 108.5 122.5 108.172C122.255 107.839 122.068 107.424 121.938 106.93C121.807 106.43 121.742 105.846 121.742 105.18ZM123.125 104.391V105.18C123.125 105.648 123.161 106.06 123.234 106.414C123.307 106.763 123.417 107.055 123.562 107.289C123.714 107.518 123.904 107.69 124.133 107.805C124.362 107.919 124.635 107.977 124.953 107.977C125.339 107.977 125.656 107.88 125.906 107.688C126.156 107.495 126.359 107.24 126.516 106.922C126.672 106.604 126.794 106.263 126.883 105.898V103.68C126.831 103.414 126.753 103.156 126.648 102.906C126.549 102.656 126.422 102.432 126.266 102.234C126.109 102.031 125.924 101.872 125.711 101.758C125.497 101.638 125.25 101.578 124.969 101.578C124.651 101.578 124.375 101.638 124.141 101.758C123.906 101.872 123.714 102.047 123.562 102.281C123.417 102.516 123.307 102.81 123.234 103.164C123.161 103.513 123.125 103.922 123.125 104.391ZM134.328 107.047V100.547H135.711V109H134.398L134.328 107.047ZM134.586 105.266L135.133 105.25C135.133 105.812 135.083 106.333 134.984 106.812C134.891 107.286 134.734 107.698 134.516 108.047C134.302 108.396 134.018 108.669 133.664 108.867C133.31 109.06 132.875 109.156 132.359 109.156C132.01 109.156 131.693 109.096 131.406 108.977C131.125 108.857 130.88 108.672 130.672 108.422C130.469 108.172 130.31 107.846 130.195 107.445C130.086 107.044 130.031 106.562 130.031 106V100.547H131.406V106.016C131.406 106.396 131.44 106.711 131.508 106.961C131.576 107.206 131.667 107.401 131.781 107.547C131.896 107.688 132.023 107.786 132.164 107.844C132.305 107.901 132.448 107.93 132.594 107.93C133.083 107.93 133.474 107.812 133.766 107.578C134.057 107.339 134.266 107.018 134.391 106.617C134.521 106.211 134.586 105.76 134.586 105.266ZM140.812 109.156C140.307 109.156 139.852 109.081 139.445 108.93C139.039 108.779 138.693 108.549 138.406 108.242C138.12 107.93 137.901 107.536 137.75 107.062C137.599 106.589 137.523 106.029 137.523 105.383V104.43C137.523 103.685 137.609 103.055 137.781 102.539C137.958 102.023 138.195 101.609 138.492 101.297C138.789 100.979 139.125 100.75 139.5 100.609C139.875 100.464 140.26 100.391 140.656 100.391C141.188 100.391 141.641 100.477 142.016 100.648C142.391 100.82 142.695 101.076 142.93 101.414C143.164 101.753 143.336 102.169 143.445 102.664C143.56 103.159 143.617 103.729 143.617 104.375V105.18H138.336V104H142.234V103.805C142.214 103.367 142.154 102.982 142.055 102.648C141.961 102.315 141.805 102.055 141.586 101.867C141.367 101.674 141.057 101.578 140.656 101.578C140.401 101.578 140.164 101.622 139.945 101.711C139.732 101.794 139.547 101.943 139.391 102.156C139.24 102.365 139.12 102.654 139.031 103.023C138.948 103.393 138.906 103.862 138.906 104.43V105.383C138.906 105.836 138.948 106.227 139.031 106.555C139.12 106.878 139.247 107.146 139.414 107.359C139.586 107.568 139.794 107.724 140.039 107.828C140.289 107.927 140.573 107.977 140.891 107.977C141.354 107.977 141.737 107.888 142.039 107.711C142.341 107.529 142.604 107.297 142.828 107.016L143.555 107.883C143.404 108.096 143.206 108.302 142.961 108.5C142.721 108.693 142.424 108.852 142.07 108.977C141.721 109.096 141.302 109.156 140.812 109.156ZM146.672 102.227V109H145.297V100.547H146.594L146.672 102.227ZM146.391 104.453L145.75 104.43C145.745 103.852 145.802 103.318 145.922 102.828C146.042 102.333 146.221 101.904 146.461 101.539C146.706 101.174 147.01 100.893 147.375 100.695C147.745 100.492 148.174 100.391 148.664 100.391C148.987 100.391 149.286 100.448 149.562 100.562C149.844 100.672 150.089 100.846 150.297 101.086C150.505 101.326 150.667 101.633 150.781 102.008C150.901 102.383 150.961 102.836 150.961 103.367V109H149.578V103.438C149.578 102.995 149.518 102.641 149.398 102.375C149.284 102.109 149.12 101.917 148.906 101.797C148.693 101.672 148.438 101.609 148.141 101.609C147.802 101.609 147.518 101.685 147.289 101.836C147.065 101.987 146.885 102.195 146.75 102.461C146.62 102.727 146.526 103.031 146.469 103.375C146.417 103.714 146.391 104.073 146.391 104.453ZM150.945 103.656L150.023 103.953C150.018 103.49 150.076 103.044 150.195 102.617C150.315 102.19 150.492 101.81 150.727 101.477C150.966 101.143 151.263 100.88 151.617 100.688C151.971 100.49 152.383 100.391 152.852 100.391C153.237 100.391 153.578 100.451 153.875 100.57C154.172 100.69 154.422 100.875 154.625 101.125C154.833 101.37 154.99 101.685 155.094 102.07C155.198 102.456 155.25 102.914 155.25 103.445V109H153.867V103.43C153.867 102.956 153.807 102.589 153.688 102.328C153.573 102.062 153.409 101.878 153.195 101.773C152.982 101.664 152.727 101.609 152.43 101.609C152.19 101.609 151.977 101.664 151.789 101.773C151.607 101.883 151.453 102.034 151.328 102.227C151.203 102.414 151.107 102.63 151.039 102.875C150.977 103.12 150.945 103.38 150.945 103.656ZM158.82 100.547V109H157.445V100.547H158.82ZM157.367 98.3047C157.367 98.0703 157.432 97.8724 157.562 97.7109C157.693 97.5495 157.888 97.4688 158.148 97.4688C158.409 97.4688 158.604 97.5495 158.734 97.7109C158.87 97.8724 158.938 98.0703 158.938 98.3047C158.938 98.5286 158.87 98.7214 158.734 98.8828C158.604 99.0391 158.409 99.1172 158.148 99.1172C157.888 99.1172 157.693 99.0391 157.562 98.8828C157.432 98.7214 157.367 98.5286 157.367 98.3047ZM162.391 102.352V109H161.008V100.547H162.312L162.391 102.352ZM162.055 104.453L161.492 104.43C161.487 103.852 161.552 103.318 161.688 102.828C161.828 102.333 162.026 101.904 162.281 101.539C162.542 101.174 162.852 100.893 163.211 100.695C163.57 100.492 163.969 100.391 164.406 100.391C164.75 100.391 165.062 100.448 165.344 100.562C165.625 100.672 165.865 100.849 166.062 101.094C166.26 101.339 166.411 101.656 166.516 102.047C166.625 102.432 166.68 102.904 166.68 103.461V109H165.297V103.445C165.297 103.003 165.247 102.648 165.148 102.383C165.055 102.112 164.909 101.917 164.711 101.797C164.518 101.672 164.273 101.609 163.977 101.609C163.706 101.609 163.453 101.685 163.219 101.836C162.984 101.987 162.779 102.195 162.602 102.461C162.43 102.727 162.294 103.031 162.195 103.375C162.102 103.714 162.055 104.073 162.055 104.453ZM168.844 108.234C168.844 107.99 168.919 107.784 169.07 107.617C169.227 107.445 169.451 107.359 169.742 107.359C170.034 107.359 170.255 107.445 170.406 107.617C170.562 107.784 170.641 107.99 170.641 108.234C170.641 108.474 170.562 108.677 170.406 108.844C170.255 109.01 170.034 109.094 169.742 109.094C169.451 109.094 169.227 109.01 169.07 108.844C168.919 108.677 168.844 108.474 168.844 108.234ZM177.078 106.836C177.078 106.622 177.026 106.435 176.922 106.273C176.818 106.112 176.646 105.956 176.406 105.805C176.172 105.654 175.854 105.492 175.453 105.32C175.062 105.159 174.711 105 174.398 104.844C174.091 104.682 173.831 104.508 173.617 104.32C173.404 104.133 173.24 103.917 173.125 103.672C173.016 103.422 172.961 103.128 172.961 102.789C172.961 102.451 173.023 102.138 173.148 101.852C173.279 101.56 173.461 101.305 173.695 101.086C173.93 100.867 174.211 100.698 174.539 100.578C174.867 100.453 175.234 100.391 175.641 100.391C176.219 100.391 176.711 100.503 177.117 100.727C177.523 100.951 177.833 101.258 178.047 101.648C178.266 102.034 178.375 102.469 178.375 102.953H177C177 102.719 176.948 102.497 176.844 102.289C176.74 102.081 176.586 101.911 176.383 101.781C176.18 101.646 175.932 101.578 175.641 101.578C175.333 101.578 175.083 101.633 174.891 101.742C174.698 101.852 174.557 101.995 174.469 102.172C174.385 102.344 174.344 102.534 174.344 102.742C174.344 102.898 174.365 103.034 174.406 103.148C174.453 103.258 174.531 103.362 174.641 103.461C174.75 103.555 174.898 103.654 175.086 103.758C175.279 103.857 175.523 103.971 175.82 104.102C176.393 104.326 176.875 104.552 177.266 104.781C177.656 105.01 177.953 105.279 178.156 105.586C178.359 105.893 178.461 106.273 178.461 106.727C178.461 107.096 178.393 107.432 178.258 107.734C178.128 108.031 177.94 108.286 177.695 108.5C177.451 108.714 177.156 108.878 176.812 108.992C176.474 109.102 176.094 109.156 175.672 109.156C175.036 109.156 174.497 109.031 174.055 108.781C173.617 108.526 173.284 108.195 173.055 107.789C172.831 107.378 172.719 106.938 172.719 106.469H174.102C174.117 106.865 174.206 107.172 174.367 107.391C174.534 107.609 174.734 107.76 174.969 107.844C175.203 107.927 175.438 107.969 175.672 107.969C175.979 107.969 176.237 107.924 176.445 107.836C176.654 107.742 176.81 107.609 176.914 107.438C177.023 107.266 177.078 107.065 177.078 106.836ZM183.359 100.547V101.656H179.414V100.547H183.359ZM180.703 98.4922H182.086V106.906C182.086 107.193 182.12 107.409 182.188 107.555C182.26 107.701 182.352 107.797 182.461 107.844C182.57 107.891 182.688 107.914 182.812 107.914C182.906 107.914 183.01 107.904 183.125 107.883C183.24 107.857 183.318 107.836 183.359 107.82L183.352 109C183.258 109.036 183.133 109.07 182.977 109.102C182.82 109.138 182.622 109.156 182.383 109.156C182.086 109.156 181.81 109.086 181.555 108.945C181.299 108.805 181.094 108.57 180.938 108.242C180.781 107.909 180.703 107.461 180.703 106.898V98.4922ZM189.281 107.047V100.547H190.664V109H189.352L189.281 107.047ZM189.539 105.266L190.086 105.25C190.086 105.812 190.036 106.333 189.938 106.812C189.844 107.286 189.688 107.698 189.469 108.047C189.255 108.396 188.971 108.669 188.617 108.867C188.263 109.06 187.828 109.156 187.312 109.156C186.964 109.156 186.646 109.096 186.359 108.977C186.078 108.857 185.833 108.672 185.625 108.422C185.422 108.172 185.263 107.846 185.148 107.445C185.039 107.044 184.984 106.562 184.984 106V100.547H186.359V106.016C186.359 106.396 186.393 106.711 186.461 106.961C186.529 107.206 186.62 107.401 186.734 107.547C186.849 107.688 186.977 107.786 187.117 107.844C187.258 107.901 187.401 107.93 187.547 107.93C188.036 107.93 188.427 107.812 188.719 107.578C189.01 107.339 189.219 107.018 189.344 106.617C189.474 106.211 189.539 105.76 189.539 105.266ZM197.172 107.359V97H198.547V109H197.289L197.172 107.359ZM192.445 105.18V104.391C192.445 103.693 192.513 103.094 192.648 102.594C192.784 102.089 192.977 101.674 193.227 101.352C193.477 101.023 193.776 100.781 194.125 100.625C194.474 100.469 194.859 100.391 195.281 100.391C195.719 100.391 196.094 100.479 196.406 100.656C196.724 100.833 196.99 101.091 197.203 101.43C197.417 101.763 197.583 102.169 197.703 102.648C197.828 103.122 197.911 103.659 197.953 104.258V105.312C197.906 105.906 197.82 106.44 197.695 106.914C197.576 107.388 197.409 107.792 197.195 108.125C196.982 108.458 196.716 108.714 196.398 108.891C196.081 109.068 195.703 109.156 195.266 109.156C194.849 109.156 194.469 109.076 194.125 108.914C193.781 108.747 193.482 108.5 193.227 108.172C192.977 107.839 192.784 107.424 192.648 106.93C192.513 106.43 192.445 105.846 192.445 105.18ZM193.828 104.391V105.18C193.828 105.648 193.862 106.057 193.93 106.406C193.997 106.75 194.104 107.036 194.25 107.266C194.396 107.49 194.581 107.656 194.805 107.766C195.034 107.875 195.307 107.93 195.625 107.93C196.01 107.93 196.326 107.836 196.57 107.648C196.815 107.461 197.01 107.214 197.156 106.906C197.307 106.594 197.427 106.258 197.516 105.898V103.68C197.464 103.414 197.388 103.159 197.289 102.914C197.19 102.664 197.065 102.443 196.914 102.25C196.768 102.052 196.589 101.896 196.375 101.781C196.167 101.667 195.922 101.609 195.641 101.609C195.323 101.609 195.047 101.667 194.812 101.781C194.583 101.896 194.396 102.068 194.25 102.297C194.109 102.526 194.003 102.815 193.93 103.164C193.862 103.513 193.828 103.922 193.828 104.391ZM202.164 100.547V109H200.789V100.547H202.164ZM200.711 98.3047C200.711 98.0703 200.776 97.8724 200.906 97.7109C201.036 97.5495 201.232 97.4688 201.492 97.4688C201.753 97.4688 201.948 97.5495 202.078 97.7109C202.214 97.8724 202.281 98.0703 202.281 98.3047C202.281 98.5286 202.214 98.7214 202.078 98.8828C201.948 99.0391 201.753 99.1172 201.492 99.1172C201.232 99.1172 201.036 99.0391 200.906 98.8828C200.776 98.7214 200.711 98.5286 200.711 98.3047ZM204.062 105.18V104.375C204.062 103.719 204.146 103.143 204.312 102.648C204.479 102.148 204.711 101.732 205.008 101.398C205.305 101.065 205.651 100.815 206.047 100.648C206.443 100.477 206.867 100.391 207.32 100.391C207.784 100.391 208.214 100.477 208.609 100.648C209.005 100.815 209.352 101.065 209.648 101.398C209.951 101.732 210.185 102.148 210.352 102.648C210.518 103.143 210.602 103.719 210.602 104.375V105.18C210.602 105.836 210.518 106.414 210.352 106.914C210.185 107.409 209.953 107.823 209.656 108.156C209.359 108.49 209.013 108.74 208.617 108.906C208.221 109.073 207.794 109.156 207.336 109.156C206.878 109.156 206.451 109.073 206.055 108.906C205.659 108.74 205.31 108.49 205.008 108.156C204.711 107.823 204.479 107.409 204.312 106.914C204.146 106.414 204.062 105.836 204.062 105.18ZM205.445 104.375V105.18C205.445 105.643 205.492 106.049 205.586 106.398C205.68 106.747 205.812 107.039 205.984 107.273C206.156 107.508 206.357 107.685 206.586 107.805C206.815 107.919 207.065 107.977 207.336 107.977C207.648 107.977 207.922 107.919 208.156 107.805C208.396 107.685 208.594 107.508 208.75 107.273C208.906 107.039 209.023 106.747 209.102 106.398C209.18 106.049 209.219 105.643 209.219 105.18V104.375C209.219 103.911 209.172 103.508 209.078 103.164C208.984 102.815 208.852 102.523 208.68 102.289C208.508 102.049 208.305 101.872 208.07 101.758C207.841 101.638 207.591 101.578 207.32 101.578C207.055 101.578 206.807 101.638 206.578 101.758C206.349 101.872 206.148 102.049 205.977 102.289C205.81 102.523 205.68 102.815 205.586 103.164C205.492 103.508 205.445 103.911 205.445 104.375ZM222.852 105.07C222.836 105.549 222.773 106.031 222.664 106.516C222.56 106.995 222.401 107.435 222.188 107.836C221.974 108.237 221.698 108.56 221.359 108.805C221.021 109.044 220.607 109.164 220.117 109.164C219.805 109.164 219.534 109.102 219.305 108.977C219.076 108.846 218.891 108.661 218.75 108.422C218.609 108.182 218.51 107.893 218.453 107.555C218.401 107.216 218.393 106.839 218.43 106.422L218.766 102.094H219.852L219.508 106.422C219.482 106.802 219.487 107.112 219.523 107.352C219.56 107.591 219.617 107.776 219.695 107.906C219.773 108.031 219.862 108.117 219.961 108.164C220.065 108.211 220.172 108.234 220.281 108.234C220.531 108.234 220.755 108.154 220.953 107.992C221.151 107.826 221.318 107.599 221.453 107.312C221.594 107.021 221.701 106.685 221.773 106.305C221.852 105.919 221.898 105.508 221.914 105.07C221.94 104.294 221.909 103.581 221.82 102.93C221.732 102.279 221.583 101.701 221.375 101.195C221.167 100.69 220.896 100.263 220.562 99.9141C220.229 99.5651 219.831 99.2995 219.367 99.1172C218.909 98.9349 218.383 98.8438 217.789 98.8438C217.242 98.8438 216.742 98.9453 216.289 99.1484C215.836 99.3464 215.43 99.6328 215.07 100.008C214.711 100.383 214.404 100.833 214.148 101.359C213.898 101.885 213.701 102.479 213.555 103.141C213.414 103.797 213.331 104.505 213.305 105.266C213.273 106.047 213.307 106.766 213.406 107.422C213.505 108.073 213.664 108.654 213.883 109.164C214.107 109.68 214.385 110.115 214.719 110.469C215.052 110.828 215.44 111.099 215.883 111.281C216.331 111.469 216.826 111.562 217.367 111.562C217.753 111.562 218.143 111.508 218.539 111.398C218.935 111.289 219.268 111.141 219.539 110.953L219.805 111.844C219.492 112.078 219.107 112.253 218.648 112.367C218.19 112.482 217.755 112.539 217.344 112.539C216.677 112.539 216.068 112.43 215.516 112.211C214.969 111.997 214.484 111.682 214.062 111.266C213.646 110.854 213.297 110.352 213.016 109.758C212.734 109.169 212.526 108.497 212.391 107.742C212.26 106.987 212.211 106.161 212.242 105.266C212.273 104.411 212.38 103.607 212.562 102.852C212.75 102.096 213.003 101.411 213.32 100.797C213.643 100.182 214.029 99.6536 214.477 99.2109C214.924 98.763 215.427 98.4193 215.984 98.1797C216.547 97.9401 217.156 97.8203 217.812 97.8203C218.479 97.8203 219.083 97.9297 219.625 98.1484C220.167 98.3672 220.646 98.6823 221.062 99.0938C221.479 99.5052 221.826 100.008 222.102 100.602C222.378 101.195 222.578 101.867 222.703 102.617C222.833 103.367 222.883 104.185 222.852 105.07ZM216.25 105.734C216.224 106.099 216.224 106.424 216.25 106.711C216.281 106.997 216.339 107.24 216.422 107.438C216.505 107.635 216.615 107.786 216.75 107.891C216.885 107.99 217.042 108.039 217.219 108.039C217.333 108.039 217.453 108.003 217.578 107.93C217.703 107.852 217.828 107.732 217.953 107.57C218.078 107.409 218.193 107.198 218.297 106.938C218.401 106.677 218.487 106.365 218.555 106L219.031 106.562C218.932 106.99 218.802 107.365 218.641 107.688C218.484 108.01 218.307 108.281 218.109 108.5C217.917 108.719 217.714 108.885 217.5 109C217.286 109.109 217.073 109.164 216.859 109.164C216.531 109.164 216.247 109.083 216.008 108.922C215.768 108.755 215.57 108.521 215.414 108.219C215.263 107.917 215.159 107.557 215.102 107.141C215.044 106.719 215.036 106.25 215.078 105.734C215.12 105.188 215.201 104.682 215.32 104.219C215.445 103.755 215.599 103.341 215.781 102.977C215.964 102.612 216.169 102.302 216.398 102.047C216.628 101.792 216.87 101.599 217.125 101.469C217.38 101.333 217.641 101.266 217.906 101.266C218.396 101.266 218.779 101.349 219.055 101.516C219.331 101.677 219.596 101.87 219.852 102.094L219.25 102.867C219.12 102.721 218.953 102.586 218.75 102.461C218.552 102.336 218.315 102.273 218.039 102.273C217.81 102.273 217.594 102.346 217.391 102.492C217.193 102.638 217.016 102.857 216.859 103.148C216.703 103.44 216.573 103.802 216.469 104.234C216.365 104.661 216.292 105.161 216.25 105.734ZM229.273 100.547H230.516V109.07C230.516 109.815 230.385 110.43 230.125 110.914C229.87 111.398 229.513 111.755 229.055 111.984C228.596 112.219 228.068 112.336 227.469 112.336C227.255 112.336 226.987 112.297 226.664 112.219C226.341 112.141 226.018 112.021 225.695 111.859C225.372 111.703 225.107 111.505 224.898 111.266L225.469 110.305C225.766 110.607 226.081 110.823 226.414 110.953C226.747 111.083 227.065 111.148 227.367 111.148C227.727 111.148 228.039 111.083 228.305 110.953C228.57 110.823 228.776 110.609 228.922 110.312C229.068 110.021 229.141 109.63 229.141 109.141V102.406L229.273 100.547ZM224.414 105.18V104.391C224.414 103.693 224.479 103.094 224.609 102.594C224.74 102.089 224.927 101.674 225.172 101.352C225.422 101.023 225.721 100.781 226.07 100.625C226.419 100.469 226.81 100.391 227.242 100.391C227.68 100.391 228.057 100.479 228.375 100.656C228.693 100.833 228.956 101.091 229.164 101.43C229.378 101.763 229.544 102.169 229.664 102.648C229.789 103.122 229.875 103.659 229.922 104.258V105.312C229.875 105.906 229.789 106.44 229.664 106.914C229.544 107.388 229.375 107.792 229.156 108.125C228.943 108.458 228.677 108.714 228.359 108.891C228.042 109.068 227.664 109.156 227.227 109.156C226.799 109.156 226.414 109.076 226.07 108.914C225.727 108.747 225.43 108.5 225.18 108.172C224.935 107.839 224.745 107.424 224.609 106.93C224.479 106.43 224.414 105.846 224.414 105.18ZM225.797 104.391V105.18C225.797 105.648 225.831 106.057 225.898 106.406C225.966 106.75 226.07 107.036 226.211 107.266C226.357 107.49 226.542 107.656 226.766 107.766C226.995 107.875 227.268 107.93 227.586 107.93C227.971 107.93 228.286 107.836 228.531 107.648C228.776 107.461 228.971 107.214 229.117 106.906C229.268 106.594 229.388 106.258 229.477 105.898V103.68C229.424 103.414 229.349 103.159 229.25 102.914C229.156 102.664 229.034 102.443 228.883 102.25C228.732 102.052 228.549 101.896 228.336 101.781C228.128 101.667 227.883 101.609 227.602 101.609C227.284 101.609 227.01 101.667 226.781 101.781C226.552 101.896 226.365 102.068 226.219 102.297C226.073 102.526 225.966 102.815 225.898 103.164C225.831 103.513 225.797 103.922 225.797 104.391ZM233.969 102.227V109H232.594V100.547H233.891L233.969 102.227ZM233.688 104.453L233.047 104.43C233.042 103.852 233.099 103.318 233.219 102.828C233.339 102.333 233.518 101.904 233.758 101.539C234.003 101.174 234.307 100.893 234.672 100.695C235.042 100.492 235.471 100.391 235.961 100.391C236.284 100.391 236.583 100.448 236.859 100.562C237.141 100.672 237.385 100.846 237.594 101.086C237.802 101.326 237.964 101.633 238.078 102.008C238.198 102.383 238.258 102.836 238.258 103.367V109H236.875V103.438C236.875 102.995 236.815 102.641 236.695 102.375C236.581 102.109 236.417 101.917 236.203 101.797C235.99 101.672 235.734 101.609 235.438 101.609C235.099 101.609 234.815 101.685 234.586 101.836C234.362 101.987 234.182 102.195 234.047 102.461C233.917 102.727 233.823 103.031 233.766 103.375C233.714 103.714 233.688 104.073 233.688 104.453ZM238.242 103.656L237.32 103.953C237.315 103.49 237.372 103.044 237.492 102.617C237.612 102.19 237.789 101.81 238.023 101.477C238.263 101.143 238.56 100.88 238.914 100.688C239.268 100.49 239.68 100.391 240.148 100.391C240.534 100.391 240.875 100.451 241.172 100.57C241.469 100.69 241.719 100.875 241.922 101.125C242.13 101.37 242.286 101.685 242.391 102.07C242.495 102.456 242.547 102.914 242.547 103.445V109H241.164V103.43C241.164 102.956 241.104 102.589 240.984 102.328C240.87 102.062 240.706 101.878 240.492 101.773C240.279 101.664 240.023 101.609 239.727 101.609C239.487 101.609 239.273 101.664 239.086 101.773C238.904 101.883 238.75 102.034 238.625 102.227C238.5 102.414 238.404 102.63 238.336 102.875C238.273 103.12 238.242 103.38 238.242 103.656ZM248.773 107.555V102.969C248.773 102.635 248.721 102.367 248.617 102.164C248.518 101.961 248.367 101.812 248.164 101.719C247.966 101.625 247.716 101.578 247.414 101.578C247.122 101.578 246.87 101.638 246.656 101.758C246.448 101.878 246.286 102.036 246.172 102.234C246.062 102.432 246.008 102.651 246.008 102.891H244.625C244.625 102.589 244.69 102.289 244.82 101.992C244.956 101.695 245.148 101.427 245.398 101.188C245.648 100.943 245.948 100.75 246.297 100.609C246.651 100.464 247.047 100.391 247.484 100.391C248.005 100.391 248.466 100.477 248.867 100.648C249.268 100.815 249.583 101.089 249.812 101.469C250.042 101.849 250.156 102.354 250.156 102.984V107.156C250.156 107.438 250.177 107.737 250.219 108.055C250.266 108.372 250.331 108.646 250.414 108.875V109H248.984C248.917 108.833 248.865 108.612 248.828 108.336C248.792 108.055 248.773 107.794 248.773 107.555ZM248.992 103.875L249.008 104.891H248.047C247.719 104.891 247.419 104.927 247.148 105C246.883 105.073 246.654 105.18 246.461 105.32C246.268 105.456 246.12 105.625 246.016 105.828C245.917 106.031 245.867 106.263 245.867 106.523C245.867 106.862 245.914 107.133 246.008 107.336C246.102 107.534 246.242 107.677 246.43 107.766C246.617 107.854 246.854 107.898 247.141 107.898C247.49 107.898 247.797 107.818 248.062 107.656C248.328 107.495 248.534 107.299 248.68 107.07C248.831 106.841 248.901 106.628 248.891 106.43L249.195 107.078C249.174 107.281 249.107 107.503 248.992 107.742C248.883 107.977 248.729 108.203 248.531 108.422C248.333 108.635 248.099 108.812 247.828 108.953C247.562 109.089 247.263 109.156 246.93 109.156C246.44 109.156 246.01 109.062 245.641 108.875C245.276 108.688 244.992 108.411 244.789 108.047C244.586 107.682 244.484 107.232 244.484 106.695C244.484 106.289 244.555 105.914 244.695 105.57C244.836 105.227 245.044 104.93 245.32 104.68C245.596 104.424 245.943 104.227 246.359 104.086C246.781 103.945 247.268 103.875 247.82 103.875H248.992ZM253.789 100.547V109H252.414V100.547H253.789ZM252.336 98.3047C252.336 98.0703 252.401 97.8724 252.531 97.7109C252.661 97.5495 252.857 97.4688 253.117 97.4688C253.378 97.4688 253.573 97.5495 253.703 97.7109C253.839 97.8724 253.906 98.0703 253.906 98.3047C253.906 98.5286 253.839 98.7214 253.703 98.8828C253.573 99.0391 253.378 99.1172 253.117 99.1172C252.857 99.1172 252.661 99.0391 252.531 98.8828C252.401 98.7214 252.336 98.5286 252.336 98.3047ZM257.461 97V109H256.086V97H257.461ZM259.734 108.234C259.734 107.99 259.81 107.784 259.961 107.617C260.117 107.445 260.341 107.359 260.633 107.359C260.924 107.359 261.146 107.445 261.297 107.617C261.453 107.784 261.531 107.99 261.531 108.234C261.531 108.474 261.453 108.677 261.297 108.844C261.146 109.01 260.924 109.094 260.633 109.094C260.341 109.094 260.117 109.01 259.961 108.844C259.81 108.677 259.734 108.474 259.734 108.234ZM265.25 101.875V109H263.867V100.547H265.203L265.25 101.875ZM267.352 100.5L267.359 101.844C267.245 101.818 267.141 101.802 267.047 101.797C266.958 101.786 266.854 101.781 266.734 101.781C266.474 101.781 266.245 101.833 266.047 101.938C265.854 102.042 265.688 102.188 265.547 102.375C265.406 102.562 265.294 102.786 265.211 103.047C265.128 103.302 265.07 103.583 265.039 103.891L264.68 104.125C264.68 103.615 264.719 103.135 264.797 102.688C264.88 102.24 265.008 101.844 265.18 101.5C265.352 101.151 265.57 100.88 265.836 100.688C266.107 100.49 266.43 100.391 266.805 100.391C266.888 100.391 266.99 100.404 267.109 100.43C267.234 100.451 267.315 100.474 267.352 100.5ZM273.016 107.047V100.547H274.398V109H273.086L273.016 107.047ZM273.273 105.266L273.82 105.25C273.82 105.812 273.771 106.333 273.672 106.812C273.578 107.286 273.422 107.698 273.203 108.047C272.99 108.396 272.706 108.669 272.352 108.867C271.997 109.06 271.562 109.156 271.047 109.156C270.698 109.156 270.38 109.096 270.094 108.977C269.812 108.857 269.568 108.672 269.359 108.422C269.156 108.172 268.997 107.846 268.883 107.445C268.773 107.044 268.719 106.562 268.719 106V100.547H270.094V106.016C270.094 106.396 270.128 106.711 270.195 106.961C270.263 107.206 270.354 107.401 270.469 107.547C270.583 107.688 270.711 107.786 270.852 107.844C270.992 107.901 271.135 107.93 271.281 107.93C271.771 107.93 272.161 107.812 272.453 107.578C272.745 107.339 272.953 107.018 273.078 106.617C273.208 106.211 273.273 105.76 273.273 105.266Z" fill="#F5F2ED"/>
<a href="mailto:quemin.studio@gmail.ru">
<rect fill="black" fill-opacity="0" y="0.125" width="154.438" height="18.75"/>
</a>
<path d="M186.412 144.501V145H181.559V144.501H186.412ZM181.764 135.047V145H181.244V135.047H181.764ZM185.831 139.627V140.126H181.559V139.627H185.831ZM186.398 135.047V135.539H181.559V135.047H186.398ZM190.186 140.263V140.748H187.451V140.263H190.186ZM192.12 135.047H192.653L195.928 144.166L199.202 135.047H199.729L196.133 145H195.729L192.12 135.047ZM191.949 135.047H192.428L192.476 140.365V145H191.949V135.047ZM199.435 135.047H199.927V145H199.4V140.365L199.435 135.047ZM205.122 135.464L202.155 145H201.602L204.773 135.047H205.184L205.122 135.464ZM207.918 145L204.958 135.464L204.903 135.047H205.307L208.472 145H207.918ZM207.228 141.603V142.095H202.88V141.603H207.228ZM210.748 135.047V145H210.222V135.047H210.748ZM218.186 144.501V145H213.756V144.501H218.186ZM213.961 135.047V145H213.428V135.047H213.961Z" fill="#F5F2ED"/>
<g clip-path="url(#clip0_155_8)">
<path d="M210.875 42.625H188.125C185.971 42.6276 183.906 43.4844 182.383 45.0076C180.859 46.5308 180.003 48.5959 180 50.75V70.25C180.003 72.4041 180.859 74.4692 182.383 75.9924C183.906 77.5156 185.971 78.3724 188.125 78.375H210.875C213.029 78.3724 215.094 77.5156 216.617 75.9924C218.141 74.4692 218.997 72.4041 219 70.25V50.75C218.997 48.5959 218.141 46.5308 216.617 45.0076C215.094 43.4844 213.029 42.6276 210.875 42.625V42.625ZM188.125 45.875H210.875C211.848 45.8769 212.798 46.17 213.603 46.7164C214.408 47.2629 215.032 48.0378 215.393 48.9414L202.948 61.3873C202.032 62.2994 200.793 62.8115 199.5 62.8115C198.207 62.8115 196.968 62.2994 196.052 61.3873L183.608 48.9414C183.968 48.0378 184.592 47.2629 185.397 46.7164C186.202 46.17 187.152 45.8769 188.125 45.875V45.875ZM210.875 75.125H188.125C186.832 75.125 185.592 74.6114 184.678 73.6971C183.764 72.7829 183.25 71.5429 183.25 70.25V53.1875L193.754 63.685C195.279 65.2064 197.346 66.0608 199.5 66.0608C201.654 66.0608 203.721 65.2064 205.246 63.685L215.75 53.1875V70.25C215.75 71.5429 215.236 72.7829 214.322 73.6971C213.408 74.6114 212.168 75.125 210.875 75.125Z" fill="#F5F2ED"/>
</g>
<defs>
<clipPath id="clip0_155_8">
<rect width="39" height="39" fill="white" transform="translate(180 41)"/>
</clipPath>
</defs>
</svg>
