<svg width="168" height="29" viewBox="0 0 168 29" fill="none" xmlns="http://www.w3.org/2000/svg">
<g clip-path="url(#clip0_155_6)">
<path d="M22.7115 28.2018L14 21.7991L5.28851 28.2018L8.63335 17.8616L-0.0734863 11.4998H10.6762L14 1.14209L17.3238 11.4998H28.0723L19.3667 17.8616L22.7115 28.2018Z" fill="#FFC700"/>
</g>
<g clip-path="url(#clip1_155_6)">
<path d="M57.7115 28.2018L49 21.7991L40.2885 28.2018L43.6333 17.8616L34.9265 11.4998H45.6762L49 1.14209L52.3238 11.4998H63.0723L54.3667 17.8616L57.7115 28.2018Z" fill="#FFC700"/>
<g clip-path="url(#clip2_155_6)">
<path d="M57.7115 28.2018L49 21.7991L40.2885 28.2018L43.6333 17.8616L34.9265 11.4998H45.6762L49 1.14209L52.3238 11.4998H63.0723L54.3667 17.8616L57.7115 28.2018Z" fill="#FFC700"/>
</g>
</g>
<g clip-path="url(#clip3_155_6)">
<path d="M162.712 28.2018L154 21.7991L145.289 28.2018L148.633 17.8616L139.927 11.4998H150.676L154 1.14209L157.324 11.4998H168.072L159.367 17.8616L162.712 28.2018Z" fill="#FFC700"/>
</g>
<g clip-path="url(#clip4_155_6)">
<path d="M92.7115 27.2018L84 20.7991L75.2885 27.2018L78.6333 16.8616L69.9265 10.4998H80.6762L84 0.14209L87.3238 10.4998H98.0723L89.3667 16.8616L92.7115 27.2018Z" fill="#FFC700"/>
</g>
<g clip-path="url(#clip5_155_6)">
<path d="M127.712 27.2018L119 20.7991L110.289 27.2018L113.633 16.8616L104.927 10.4998H115.676L119 0.14209L122.324 10.4998H133.072L124.367 16.8616L127.712 27.2018Z" fill="#FFC700"/>
<g clip-path="url(#clip6_155_6)">
<path d="M127.712 27.2018L119 20.7991L110.289 27.2018L113.633 16.8616L104.927 10.4998H115.676L119 0.14209L122.324 10.4998H133.072L124.367 16.8616L127.712 27.2018Z" fill="#FFC700"/>
</g>
</g>
<defs>
<clipPath id="clip0_155_6">
<rect width="28" height="28" fill="white" transform="translate(0 1)"/>
</clipPath>
<clipPath id="clip1_155_6">
<rect width="28" height="28" fill="white" transform="translate(35 1)"/>
</clipPath>
<clipPath id="clip2_155_6">
<rect width="28" height="28" fill="white" transform="translate(35 1)"/>
</clipPath>
<clipPath id="clip3_155_6">
<rect width="28" height="28" fill="white" transform="translate(140 1)"/>
</clipPath>
<clipPath id="clip4_155_6">
<rect width="28" height="28" fill="white" transform="translate(70)"/>
</clipPath>
<clipPath id="clip5_155_6">
<rect width="28" height="28" fill="white" transform="translate(105)"/>
</clipPath>
<clipPath id="clip6_155_6">
<rect width="28" height="28" fill="white" transform="translate(105)"/>
</clipPath>
</defs>
</svg>
