<svg width="40" height="40" viewBox="0 0 40 40" fill="none" xmlns="http://www.w3.org/2000/svg">
<g clip-path="url(#clip0_170_6)">
<path d="M20.0168 0C8.98011 0 0.0334473 8.94667 0.0334473 19.9833C0.0334473 28.4533 5.29678 35.69 12.7301 38.6017C12.5484 37.0233 12.4018 34.5883 12.7951 32.8617C13.1568 31.2983 15.1301 22.9267 15.1301 22.9267C15.1301 22.9267 14.5384 21.7267 14.5384 19.9667C14.5384 17.1867 16.1501 15.115 18.1568 15.115C19.8668 15.115 20.6901 16.3983 20.6901 17.9283C20.6901 19.6383 19.6051 22.205 19.0284 24.59C18.5518 26.58 20.0318 28.2083 21.9884 28.2083C25.5418 28.2083 28.2718 24.4583 28.2718 19.0633C28.2718 14.2767 24.8351 10.9383 19.9168 10.9383C14.2268 10.9383 10.8868 15.1983 10.8868 19.6067C10.8868 21.3167 11.5451 23.16 12.3668 24.1633C12.5334 24.3583 12.5501 24.54 12.5001 24.7367C12.3518 25.3617 12.0068 26.7267 11.9401 27.0067C11.8584 27.3683 11.6434 27.45 11.2651 27.27C8.76511 26.1017 7.20178 22.4667 7.20178 19.5233C7.20178 13.2233 11.7734 7.435 20.4084 7.435C27.3334 7.435 32.7268 12.37 32.7268 18.9817C32.7268 25.8733 28.3851 31.4167 22.3651 31.4167C20.3418 31.4167 18.4334 30.3633 17.7934 29.1133C17.7934 29.1133 16.7901 32.9283 16.5434 33.8667C16.1001 35.61 14.8818 37.7817 14.0601 39.1133C15.9368 39.6867 17.9118 40 19.9834 40C31.0201 40 39.9668 31.0533 39.9668 20.0167C40.0001 8.94667 31.0534 0 20.0168 0Z" fill="#F5F2ED"/>
</g>
<defs>
<clipPath id="clip0_170_6">
<rect width="40" height="40" fill="white"/>
</clipPath>
</defs>
</svg>
