<svg width="32" height="32" viewBox="0 0 32 32" fill="none" xmlns="http://www.w3.org/2000/svg">
<g clip-path="url(#clip0_52_92)">
<path d="M24.6667 0H7.33333C5.38906 0.00211756 3.52503 0.775414 2.15022 2.15022C0.775414 3.52503 0.00211756 5.38906 0 7.33333L0 24.6667C0.00211756 26.6109 0.775414 28.475 2.15022 29.8498C3.52503 31.2246 5.38906 31.9979 7.33333 32H24.6667C26.6109 31.9979 28.475 31.2246 29.8498 29.8498C31.2246 28.475 31.9979 26.6109 32 24.6667V7.33333C31.9979 5.38906 31.2246 3.52503 29.8498 2.15022C28.475 0.775414 26.6109 0.00211756 24.6667 0V0ZM28 24.6667C28 25.5507 27.6488 26.3986 27.0237 27.0237C26.3986 27.6488 25.5507 28 24.6667 28H24V26.6667C24 24.5449 23.1571 22.5101 21.6569 21.0098C20.1566 19.5095 18.1217 18.6667 16 18.6667C13.8783 18.6667 11.8434 19.5095 10.3431 21.0098C8.84286 22.5101 8 24.5449 8 26.6667V28H7.33333C6.44928 28 5.60143 27.6488 4.97631 27.0237C4.35119 26.3986 4 25.5507 4 24.6667V7.33333C4 6.44928 4.35119 5.60143 4.97631 4.97631C5.60143 4.35119 6.44928 4 7.33333 4H24.6667C25.5507 4 26.3986 4.35119 27.0237 4.97631C27.6488 5.60143 28 6.44928 28 7.33333V24.6667Z" fill="#F5F2ED"/>
<path d="M16.0002 16C18.5775 16 20.6668 13.9107 20.6668 11.3333C20.6668 8.75601 18.5775 6.66667 16.0002 6.66667C13.4228 6.66667 11.3335 8.75601 11.3335 11.3333C11.3335 13.9107 13.4228 16 16.0002 16Z" fill="#F5F2ED"/>
</g>
<defs>
<clipPath id="clip0_52_92">
<rect width="32" height="32" fill="white"/>
</clipPath>
</defs>
</svg>
