<svg width="109" height="32" viewBox="0 0 109 32" fill="none" xmlns="http://www.w3.org/2000/svg">
<path d="M13.0625 22.7812L19.373 28.4414L15.6289 31.6758L9.45898 26.0156L13.0625 22.7812ZM19.4082 12.2871V16.1367C19.4082 17.9883 19.1797 19.6113 18.7227 21.0059C18.2656 22.4004 17.6094 23.5723 16.7539 24.5215C15.9102 25.459 14.9082 26.168 13.748 26.6484C12.5879 27.1172 11.3047 27.3516 9.89844 27.3516C8.48047 27.3516 7.19141 27.1172 6.03125 26.6484C4.87109 26.168 3.86914 25.459 3.02539 24.5215C2.18164 23.5723 1.53125 22.4004 1.07422 21.0059C0.617188 19.6113 0.388672 17.9883 0.388672 16.1367V12.2871C0.388672 10.4355 0.617188 8.8125 1.07422 7.41797C1.53125 6.01172 2.17578 4.83984 3.00781 3.90234C3.85156 2.95312 4.85352 2.24414 6.01367 1.77539C7.17383 1.29492 8.46289 1.05469 9.88086 1.05469C11.2871 1.05469 12.5703 1.29492 13.7305 1.77539C14.8906 2.24414 15.8926 2.95312 16.7363 3.90234C17.5918 4.83984 18.248 6.01172 18.7051 7.41797C19.1738 8.8125 19.4082 10.4355 19.4082 12.2871ZM13.291 16.1367V12.252C13.291 11.1035 13.2207 10.125 13.0801 9.31641C12.9395 8.50781 12.7227 7.85156 12.4297 7.34766C12.1484 6.84375 11.791 6.47461 11.3574 6.24023C10.9355 6.00586 10.4434 5.88867 9.88086 5.88867C9.2832 5.88867 8.77344 6.00586 8.35156 6.24023C7.92969 6.47461 7.58398 6.84375 7.31445 7.34766C7.04492 7.85156 6.8457 8.50781 6.7168 9.31641C6.58789 10.125 6.52344 11.1035 6.52344 12.252V16.1367C6.52344 17.2734 6.58789 18.2461 6.7168 19.0547C6.8457 19.8633 7.04492 20.5254 7.31445 21.041C7.5957 21.5566 7.94727 21.9375 8.36914 22.1836C8.79102 22.418 9.30078 22.5352 9.89844 22.5352C10.4609 22.5352 10.9531 22.418 11.375 22.1836C11.8086 21.9375 12.166 21.5566 12.4473 21.041C12.7285 20.5254 12.9395 19.8633 13.0801 19.0547C13.2207 18.2461 13.291 17.2734 13.291 16.1367ZM31.3438 22.377V7.98047H37.127V27H31.7305L31.3438 22.377ZM31.8711 18.5098L33.2949 18.4746C33.2949 19.752 33.166 20.9355 32.9082 22.0254C32.6504 23.1035 32.2754 24.041 31.7832 24.8379C31.291 25.6348 30.6875 26.2559 29.9727 26.7012C29.2695 27.1348 28.4551 27.3516 27.5293 27.3516C26.7324 27.3516 26.0059 27.2227 25.3496 26.9648C24.7051 26.6953 24.1426 26.2793 23.6621 25.7168C23.1934 25.1426 22.8242 24.4102 22.5547 23.5195C22.2969 22.6172 22.168 21.5391 22.168 20.2852V7.98047H27.9336V20.3203C27.9336 20.7422 27.9629 21.1055 28.0215 21.4102C28.0918 21.7148 28.1855 21.9727 28.3027 22.1836C28.4316 22.3828 28.5957 22.5352 28.7949 22.6406C28.9941 22.7344 29.2285 22.7812 29.498 22.7812C30.1074 22.7812 30.5879 22.5938 30.9395 22.2188C31.291 21.8438 31.5312 21.334 31.6602 20.6895C31.8008 20.0449 31.8711 19.3184 31.8711 18.5098ZM48.2715 27.3516C46.9121 27.3516 45.6992 27.1641 44.6328 26.7891C43.5781 26.4141 42.6934 25.8633 41.9785 25.1367C41.2637 24.3984 40.7188 23.502 40.3438 22.4473C39.9805 21.3926 39.7988 20.1855 39.7988 18.8262V16.752C39.7988 15.2285 39.957 13.8984 40.2734 12.7617C40.6016 11.625 41.0879 10.6816 41.7324 9.93164C42.377 9.16992 43.1973 8.5957 44.1934 8.20898C45.1895 7.82227 46.3613 7.62891 47.709 7.62891C48.8926 7.62891 49.9414 7.80469 50.8555 8.15625C51.7812 8.50781 52.5605 9.05273 53.1934 9.79102C53.8379 10.5176 54.3301 11.4492 54.6699 12.5859C55.0098 13.7109 55.1797 15.0469 55.1797 16.5938V19.3535H41.9609V15.6445H49.5371V14.9941C49.5488 14.2207 49.4785 13.6348 49.3262 13.2363C49.1855 12.8379 48.9746 12.5684 48.6934 12.4277C48.4121 12.2754 48.0664 12.1992 47.6562 12.1992C47.1758 12.1992 46.7949 12.2812 46.5137 12.4453C46.2324 12.6094 46.0273 12.8672 45.8984 13.2188C45.7695 13.5703 45.6816 14.0391 45.6348 14.625C45.5996 15.2109 45.582 15.9199 45.582 16.752V18.8262C45.582 19.6465 45.6465 20.3145 45.7754 20.8301C45.916 21.3457 46.1152 21.7441 46.373 22.0254C46.6426 22.3066 46.9648 22.5059 47.3398 22.623C47.7266 22.7285 48.166 22.7812 48.6582 22.7812C49.3613 22.7812 50.0469 22.6641 50.7148 22.4297C51.3828 22.1836 51.9512 21.7852 52.4199 21.2344L54.7754 24.8203C54.459 25.2305 53.9902 25.6348 53.3691 26.0332C52.748 26.4199 52.0098 26.7363 51.1543 26.9824C50.2988 27.2285 49.3379 27.3516 48.2715 27.3516ZM63.4062 12.0059V27H57.6582V7.98047H63.0371L63.4062 12.0059ZM62.7207 16.8398L61.4375 16.875C61.4141 15.5391 61.5312 14.3086 61.7891 13.1836C62.0469 12.0586 62.4336 11.0801 62.9492 10.248C63.4766 9.41602 64.127 8.77148 64.9004 8.31445C65.6738 7.85742 66.5762 7.62891 67.6074 7.62891C68.2754 7.62891 68.8848 7.75781 69.4355 8.01562C69.998 8.26172 70.4844 8.6543 70.8945 9.19336C71.3047 9.7207 71.6211 10.4121 71.8438 11.2676C72.0664 12.1113 72.1777 13.125 72.1777 14.3086V27H66.3945V15.0645C66.3945 14.2559 66.3359 13.6465 66.2188 13.2363C66.1133 12.8262 65.9551 12.5508 65.7441 12.4102C65.5332 12.2695 65.2578 12.1992 64.918 12.1992C64.6016 12.1992 64.3027 12.3164 64.0215 12.5508C63.752 12.7852 63.5176 13.1133 63.3184 13.5352C63.1191 13.9453 62.9668 14.4316 62.8613 14.9941C62.7676 15.5566 62.7207 16.1719 62.7207 16.8398ZM71.5098 16.8398L69.9629 16.875C69.9395 15.5391 70.0449 14.3086 70.2793 13.1836C70.5137 12.0586 70.877 11.0801 71.3691 10.248C71.873 9.41602 72.5059 8.77148 73.2676 8.31445C74.0293 7.85742 74.9316 7.62891 75.9746 7.62891C76.6895 7.62891 77.3457 7.75781 77.9434 8.01562C78.5527 8.27344 79.0801 8.68945 79.5254 9.26367C79.9707 9.83789 80.3164 10.5996 80.5625 11.5488C80.8086 12.4863 80.9316 13.6465 80.9316 15.0293V27H75.1484V15.0293C75.1484 14.2441 75.0898 13.6523 74.9727 13.2539C74.8672 12.8438 74.7031 12.5684 74.4805 12.4277C74.2695 12.2754 74.0117 12.1992 73.707 12.1992C73.3203 12.1992 72.9863 12.3164 72.7051 12.5508C72.4355 12.7852 72.207 13.1133 72.0195 13.5352C71.8438 13.9453 71.7148 14.4316 71.6328 14.9941C71.5508 15.5566 71.5098 16.1719 71.5098 16.8398ZM90.1602 7.98047V27H84.3945V7.98047H90.1602ZM84.1133 3.07617C84.1133 2.23242 84.4004 1.54102 84.9746 1.00195C85.5605 0.462891 86.3164 0.193359 87.2422 0.193359C88.1797 0.193359 88.9355 0.462891 89.5098 1.00195C90.084 1.54102 90.3711 2.23242 90.3711 3.07617C90.3711 3.91992 90.084 4.61133 89.5098 5.15039C88.9355 5.68945 88.1797 5.95898 87.2422 5.95898C86.3164 5.95898 85.5605 5.68945 84.9746 5.15039C84.4004 4.61133 84.1133 3.91992 84.1133 3.07617ZM99.1953 12.041V27H93.4121V7.98047H98.8262L99.1953 12.041ZM98.5098 16.8398L97.209 16.875C97.1855 15.4219 97.3145 14.127 97.5957 12.9902C97.8887 11.8418 98.3047 10.8691 98.8438 10.0723C99.3945 9.27539 100.051 8.67187 100.812 8.26172C101.574 7.83984 102.424 7.62891 103.361 7.62891C104.076 7.62891 104.738 7.75781 105.348 8.01562C105.969 8.27344 106.502 8.68945 106.947 9.26367C107.393 9.83789 107.738 10.5996 107.984 11.5488C108.23 12.4863 108.354 13.6465 108.354 15.0293V27H102.553V15.0117C102.553 14.25 102.482 13.6699 102.342 13.2715C102.213 12.8613 102.008 12.5801 101.727 12.4277C101.457 12.2754 101.111 12.1992 100.689 12.1992C100.279 12.1992 99.9277 12.3164 99.6348 12.5508C99.3535 12.7852 99.125 13.1133 98.9492 13.5352C98.7852 13.9453 98.668 14.4316 98.5977 14.9941C98.5391 15.5566 98.5098 16.1719 98.5098 16.8398Z" fill="#F5F2ED"/>
</svg>
