<svg width="400" height="186" viewBox="0 0 400 186" fill="none" xmlns="http://www.w3.org/2000/svg">
<rect x="1.5" y="1.5" width="397" height="183" stroke="#DC9271" stroke-width="3"/>
<path d="M158.461 109.25V99.1719L158.578 97.5469H159.844V109.25H158.461ZM153.742 102.18V101.391C153.742 100.693 153.807 100.094 153.938 99.5938C154.068 99.0885 154.255 98.6745 154.5 98.3516C154.745 98.0234 155.044 97.7812 155.398 97.625C155.753 97.4688 156.156 97.3906 156.609 97.3906C157.047 97.3906 157.424 97.4792 157.742 97.6562C158.065 97.8333 158.336 98.0911 158.555 98.4297C158.773 98.763 158.945 99.1693 159.07 99.6484C159.195 100.122 159.279 100.659 159.32 101.258V102.312C159.273 102.906 159.188 103.44 159.062 103.914C158.938 104.388 158.766 104.792 158.547 105.125C158.328 105.458 158.057 105.714 157.734 105.891C157.411 106.068 157.031 106.156 156.594 106.156C156.151 106.156 155.753 106.076 155.398 105.914C155.049 105.747 154.75 105.5 154.5 105.172C154.255 104.839 154.068 104.424 153.938 103.93C153.807 103.43 153.742 102.846 153.742 102.18ZM155.125 101.391V102.18C155.125 102.648 155.161 103.06 155.234 103.414C155.307 103.763 155.417 104.055 155.562 104.289C155.714 104.518 155.904 104.69 156.133 104.805C156.362 104.919 156.635 104.977 156.953 104.977C157.339 104.977 157.656 104.88 157.906 104.688C158.156 104.495 158.359 104.24 158.516 103.922C158.672 103.604 158.794 103.263 158.883 102.898V100.68C158.831 100.414 158.753 100.156 158.648 99.9062C158.549 99.6562 158.422 99.4323 158.266 99.2344C158.109 99.0312 157.924 98.8724 157.711 98.7578C157.497 98.638 157.25 98.5781 156.969 98.5781C156.651 98.5781 156.375 98.638 156.141 98.7578C155.906 98.8724 155.714 99.0469 155.562 99.2812C155.417 99.5156 155.307 99.8099 155.234 100.164C155.161 100.513 155.125 100.922 155.125 101.391ZM166.328 104.047V97.5469H167.711V106H166.398L166.328 104.047ZM166.586 102.266L167.133 102.25C167.133 102.812 167.083 103.333 166.984 103.812C166.891 104.286 166.734 104.698 166.516 105.047C166.302 105.396 166.018 105.669 165.664 105.867C165.31 106.06 164.875 106.156 164.359 106.156C164.01 106.156 163.693 106.096 163.406 105.977C163.125 105.857 162.88 105.672 162.672 105.422C162.469 105.172 162.31 104.846 162.195 104.445C162.086 104.044 162.031 103.562 162.031 103V97.5469H163.406V103.016C163.406 103.396 163.44 103.711 163.508 103.961C163.576 104.206 163.667 104.401 163.781 104.547C163.896 104.688 164.023 104.786 164.164 104.844C164.305 104.901 164.448 104.93 164.594 104.93C165.083 104.93 165.474 104.812 165.766 104.578C166.057 104.339 166.266 104.018 166.391 103.617C166.521 103.211 166.586 102.76 166.586 102.266ZM172.812 106.156C172.307 106.156 171.852 106.081 171.445 105.93C171.039 105.779 170.693 105.549 170.406 105.242C170.12 104.93 169.901 104.536 169.75 104.062C169.599 103.589 169.523 103.029 169.523 102.383V101.43C169.523 100.685 169.609 100.055 169.781 99.5391C169.958 99.0234 170.195 98.6094 170.492 98.2969C170.789 97.9792 171.125 97.75 171.5 97.6094C171.875 97.4635 172.26 97.3906 172.656 97.3906C173.188 97.3906 173.641 97.4766 174.016 97.6484C174.391 97.8203 174.695 98.0755 174.93 98.4141C175.164 98.7526 175.336 99.1693 175.445 99.6641C175.56 100.159 175.617 100.729 175.617 101.375V102.18H170.336V101H174.234V100.805C174.214 100.367 174.154 99.9818 174.055 99.6484C173.961 99.3151 173.805 99.0547 173.586 98.8672C173.367 98.6745 173.057 98.5781 172.656 98.5781C172.401 98.5781 172.164 98.6224 171.945 98.7109C171.732 98.7943 171.547 98.9427 171.391 99.1562C171.24 99.3646 171.12 99.6536 171.031 100.023C170.948 100.393 170.906 100.862 170.906 101.43V102.383C170.906 102.836 170.948 103.227 171.031 103.555C171.12 103.878 171.247 104.146 171.414 104.359C171.586 104.568 171.794 104.724 172.039 104.828C172.289 104.927 172.573 104.977 172.891 104.977C173.354 104.977 173.737 104.888 174.039 104.711C174.341 104.529 174.604 104.297 174.828 104.016L175.555 104.883C175.404 105.096 175.206 105.302 174.961 105.5C174.721 105.693 174.424 105.852 174.07 105.977C173.721 106.096 173.302 106.156 172.812 106.156ZM178.672 99.2266V106H177.297V97.5469H178.594L178.672 99.2266ZM178.391 101.453L177.75 101.43C177.745 100.852 177.802 100.318 177.922 99.8281C178.042 99.3333 178.221 98.9036 178.461 98.5391C178.706 98.1745 179.01 97.8932 179.375 97.6953C179.745 97.4922 180.174 97.3906 180.664 97.3906C180.987 97.3906 181.286 97.4479 181.562 97.5625C181.844 97.6719 182.089 97.8464 182.297 98.0859C182.505 98.3255 182.667 98.6328 182.781 99.0078C182.901 99.3828 182.961 99.8359 182.961 100.367V106H181.578V100.438C181.578 99.9948 181.518 99.6406 181.398 99.375C181.284 99.1094 181.12 98.9167 180.906 98.7969C180.693 98.6719 180.438 98.6094 180.141 98.6094C179.802 98.6094 179.518 98.6849 179.289 98.8359C179.065 98.987 178.885 99.1953 178.75 99.4609C178.62 99.7266 178.526 100.031 178.469 100.375C178.417 100.714 178.391 101.073 178.391 101.453ZM182.945 100.656L182.023 100.953C182.018 100.49 182.076 100.044 182.195 99.6172C182.315 99.1901 182.492 98.8099 182.727 98.4766C182.966 98.1432 183.263 97.8802 183.617 97.6875C183.971 97.4896 184.383 97.3906 184.852 97.3906C185.237 97.3906 185.578 97.4505 185.875 97.5703C186.172 97.6901 186.422 97.875 186.625 98.125C186.833 98.3698 186.99 98.6849 187.094 99.0703C187.198 99.4557 187.25 99.9141 187.25 100.445V106H185.867V100.43C185.867 99.9557 185.807 99.5885 185.688 99.3281C185.573 99.0625 185.409 98.8776 185.195 98.7734C184.982 98.6641 184.727 98.6094 184.43 98.6094C184.19 98.6094 183.977 98.6641 183.789 98.7734C183.607 98.8828 183.453 99.0339 183.328 99.2266C183.203 99.4141 183.107 99.6302 183.039 99.875C182.977 100.12 182.945 100.38 182.945 100.656ZM190.82 97.5469V106H189.445V97.5469H190.82ZM189.367 95.3047C189.367 95.0703 189.432 94.8724 189.562 94.7109C189.693 94.5495 189.888 94.4688 190.148 94.4688C190.409 94.4688 190.604 94.5495 190.734 94.7109C190.87 94.8724 190.938 95.0703 190.938 95.3047C190.938 95.5286 190.87 95.7214 190.734 95.8828C190.604 96.0391 190.409 96.1172 190.148 96.1172C189.888 96.1172 189.693 96.0391 189.562 95.8828C189.432 95.7214 189.367 95.5286 189.367 95.3047ZM194.391 99.3516V106H193.008V97.5469H194.312L194.391 99.3516ZM194.055 101.453L193.492 101.43C193.487 100.852 193.552 100.318 193.688 99.8281C193.828 99.3333 194.026 98.9036 194.281 98.5391C194.542 98.1745 194.852 97.8932 195.211 97.6953C195.57 97.4922 195.969 97.3906 196.406 97.3906C196.75 97.3906 197.062 97.4479 197.344 97.5625C197.625 97.6719 197.865 97.849 198.062 98.0938C198.26 98.3385 198.411 98.6562 198.516 99.0469C198.625 99.4323 198.68 99.9036 198.68 100.461V106H197.297V100.445C197.297 100.003 197.247 99.6484 197.148 99.3828C197.055 99.112 196.909 98.9167 196.711 98.7969C196.518 98.6719 196.273 98.6094 195.977 98.6094C195.706 98.6094 195.453 98.6849 195.219 98.8359C194.984 98.987 194.779 99.1953 194.602 99.4609C194.43 99.7266 194.294 100.031 194.195 100.375C194.102 100.714 194.055 101.073 194.055 101.453ZM206.008 106V107.188H199.914V106H206.008ZM211.344 103.836C211.344 103.622 211.292 103.435 211.188 103.273C211.083 103.112 210.911 102.956 210.672 102.805C210.438 102.654 210.12 102.492 209.719 102.32C209.328 102.159 208.977 102 208.664 101.844C208.357 101.682 208.096 101.508 207.883 101.32C207.669 101.133 207.505 100.917 207.391 100.672C207.281 100.422 207.227 100.128 207.227 99.7891C207.227 99.4505 207.289 99.138 207.414 98.8516C207.544 98.5599 207.727 98.3047 207.961 98.0859C208.195 97.8672 208.477 97.6979 208.805 97.5781C209.133 97.4531 209.5 97.3906 209.906 97.3906C210.484 97.3906 210.977 97.5026 211.383 97.7266C211.789 97.9505 212.099 98.2578 212.312 98.6484C212.531 99.0339 212.641 99.4688 212.641 99.9531H211.266C211.266 99.7188 211.214 99.4974 211.109 99.2891C211.005 99.0807 210.852 98.9115 210.648 98.7812C210.445 98.6458 210.198 98.5781 209.906 98.5781C209.599 98.5781 209.349 98.6328 209.156 98.7422C208.964 98.8516 208.823 98.9948 208.734 99.1719C208.651 99.3438 208.609 99.5339 208.609 99.7422C208.609 99.8984 208.63 100.034 208.672 100.148C208.719 100.258 208.797 100.362 208.906 100.461C209.016 100.555 209.164 100.654 209.352 100.758C209.544 100.857 209.789 100.971 210.086 101.102C210.659 101.326 211.141 101.552 211.531 101.781C211.922 102.01 212.219 102.279 212.422 102.586C212.625 102.893 212.727 103.273 212.727 103.727C212.727 104.096 212.659 104.432 212.523 104.734C212.393 105.031 212.206 105.286 211.961 105.5C211.716 105.714 211.422 105.878 211.078 105.992C210.74 106.102 210.359 106.156 209.938 106.156C209.302 106.156 208.763 106.031 208.32 105.781C207.883 105.526 207.549 105.195 207.32 104.789C207.096 104.378 206.984 103.938 206.984 103.469H208.367C208.383 103.865 208.471 104.172 208.633 104.391C208.799 104.609 209 104.76 209.234 104.844C209.469 104.927 209.703 104.969 209.938 104.969C210.245 104.969 210.503 104.924 210.711 104.836C210.919 104.742 211.076 104.609 211.18 104.438C211.289 104.266 211.344 104.065 211.344 103.836ZM217.625 97.5469V98.6562H213.68V97.5469H217.625ZM214.969 95.4922H216.352V103.906C216.352 104.193 216.385 104.409 216.453 104.555C216.526 104.701 216.617 104.797 216.727 104.844C216.836 104.891 216.953 104.914 217.078 104.914C217.172 104.914 217.276 104.904 217.391 104.883C217.505 104.857 217.583 104.836 217.625 104.82L217.617 106C217.523 106.036 217.398 106.07 217.242 106.102C217.086 106.138 216.888 106.156 216.648 106.156C216.352 106.156 216.076 106.086 215.82 105.945C215.565 105.805 215.359 105.57 215.203 105.242C215.047 104.909 214.969 104.461 214.969 103.898V95.4922ZM223.547 104.047V97.5469H224.93V106H223.617L223.547 104.047ZM223.805 102.266L224.352 102.25C224.352 102.812 224.302 103.333 224.203 103.812C224.109 104.286 223.953 104.698 223.734 105.047C223.521 105.396 223.237 105.669 222.883 105.867C222.529 106.06 222.094 106.156 221.578 106.156C221.229 106.156 220.911 106.096 220.625 105.977C220.344 105.857 220.099 105.672 219.891 105.422C219.688 105.172 219.529 104.846 219.414 104.445C219.305 104.044 219.25 103.562 219.25 103V97.5469H220.625V103.016C220.625 103.396 220.659 103.711 220.727 103.961C220.794 104.206 220.885 104.401 221 104.547C221.115 104.688 221.242 104.786 221.383 104.844C221.523 104.901 221.667 104.93 221.812 104.93C222.302 104.93 222.693 104.812 222.984 104.578C223.276 104.339 223.484 104.018 223.609 103.617C223.74 103.211 223.805 102.76 223.805 102.266ZM231.438 104.359V94H232.812V106H231.555L231.438 104.359ZM226.711 102.18V101.391C226.711 100.693 226.779 100.094 226.914 99.5938C227.049 99.0885 227.242 98.6745 227.492 98.3516C227.742 98.0234 228.042 97.7812 228.391 97.625C228.74 97.4688 229.125 97.3906 229.547 97.3906C229.984 97.3906 230.359 97.4792 230.672 97.6562C230.99 97.8333 231.255 98.0911 231.469 98.4297C231.682 98.763 231.849 99.1693 231.969 99.6484C232.094 100.122 232.177 100.659 232.219 101.258V102.312C232.172 102.906 232.086 103.44 231.961 103.914C231.841 104.388 231.674 104.792 231.461 105.125C231.247 105.458 230.982 105.714 230.664 105.891C230.346 106.068 229.969 106.156 229.531 106.156C229.115 106.156 228.734 106.076 228.391 105.914C228.047 105.747 227.747 105.5 227.492 105.172C227.242 104.839 227.049 104.424 226.914 103.93C226.779 103.43 226.711 102.846 226.711 102.18ZM228.094 101.391V102.18C228.094 102.648 228.128 103.057 228.195 103.406C228.263 103.75 228.37 104.036 228.516 104.266C228.661 104.49 228.846 104.656 229.07 104.766C229.299 104.875 229.573 104.93 229.891 104.93C230.276 104.93 230.591 104.836 230.836 104.648C231.081 104.461 231.276 104.214 231.422 103.906C231.573 103.594 231.693 103.258 231.781 102.898V100.68C231.729 100.414 231.654 100.159 231.555 99.9141C231.456 99.6641 231.331 99.4427 231.18 99.25C231.034 99.0521 230.854 98.8958 230.641 98.7812C230.432 98.6667 230.188 98.6094 229.906 98.6094C229.589 98.6094 229.312 98.6667 229.078 98.7812C228.849 98.8958 228.661 99.0677 228.516 99.2969C228.375 99.526 228.268 99.8151 228.195 100.164C228.128 100.513 228.094 100.922 228.094 101.391ZM236.43 97.5469V106H235.055V97.5469H236.43ZM234.977 95.3047C234.977 95.0703 235.042 94.8724 235.172 94.7109C235.302 94.5495 235.497 94.4688 235.758 94.4688C236.018 94.4688 236.214 94.5495 236.344 94.7109C236.479 94.8724 236.547 95.0703 236.547 95.3047C236.547 95.5286 236.479 95.7214 236.344 95.8828C236.214 96.0391 236.018 96.1172 235.758 96.1172C235.497 96.1172 235.302 96.0391 235.172 95.8828C235.042 95.7214 234.977 95.5286 234.977 95.3047ZM238.328 102.18V101.375C238.328 100.719 238.411 100.143 238.578 99.6484C238.745 99.1484 238.977 98.7318 239.273 98.3984C239.57 98.0651 239.917 97.8151 240.312 97.6484C240.708 97.4766 241.133 97.3906 241.586 97.3906C242.049 97.3906 242.479 97.4766 242.875 97.6484C243.271 97.8151 243.617 98.0651 243.914 98.3984C244.216 98.7318 244.451 99.1484 244.617 99.6484C244.784 100.143 244.867 100.719 244.867 101.375V102.18C244.867 102.836 244.784 103.414 244.617 103.914C244.451 104.409 244.219 104.823 243.922 105.156C243.625 105.49 243.279 105.74 242.883 105.906C242.487 106.073 242.06 106.156 241.602 106.156C241.143 106.156 240.716 106.073 240.32 105.906C239.924 105.74 239.576 105.49 239.273 105.156C238.977 104.823 238.745 104.409 238.578 103.914C238.411 103.414 238.328 102.836 238.328 102.18ZM239.711 101.375V102.18C239.711 102.643 239.758 103.049 239.852 103.398C239.945 103.747 240.078 104.039 240.25 104.273C240.422 104.508 240.622 104.685 240.852 104.805C241.081 104.919 241.331 104.977 241.602 104.977C241.914 104.977 242.188 104.919 242.422 104.805C242.661 104.685 242.859 104.508 243.016 104.273C243.172 104.039 243.289 103.747 243.367 103.398C243.445 103.049 243.484 102.643 243.484 102.18V101.375C243.484 100.911 243.438 100.508 243.344 100.164C243.25 99.8151 243.117 99.5234 242.945 99.2891C242.773 99.0495 242.57 98.8724 242.336 98.7578C242.107 98.638 241.857 98.5781 241.586 98.5781C241.32 98.5781 241.073 98.638 240.844 98.7578C240.615 98.8724 240.414 99.0495 240.242 99.2891C240.076 99.5234 239.945 99.8151 239.852 100.164C239.758 100.508 239.711 100.911 239.711 101.375Z" fill="#F5F2ED"/>
<path d="M172.924 132.047V142H172.404V132.047H172.924ZM175.891 132.047V132.539H169.438V132.047H175.891ZM182.74 141.501V142H177.887V141.501H182.74ZM178.092 132.047V142H177.572V132.047H178.092ZM182.159 136.627V137.126H177.887V136.627H182.159ZM182.727 132.047V132.539H177.887V132.047H182.727ZM189.33 141.501V142H184.9V141.501H189.33ZM185.105 132.047V142H184.572V132.047H185.105ZM196.18 141.501V142H191.326V141.501H196.18ZM191.531 132.047V142H191.012V132.047H191.531ZM195.599 136.627V137.126H191.326V136.627H195.599ZM196.166 132.047V132.539H191.326V132.047H196.166ZM204.007 137.406V140.899C203.916 141.027 203.752 141.189 203.515 141.385C203.278 141.581 202.961 141.758 202.564 141.918C202.168 142.073 201.685 142.15 201.115 142.15C200.628 142.15 200.183 142.064 199.782 141.891C199.386 141.717 199.044 141.465 198.757 141.132C198.47 140.795 198.249 140.384 198.094 139.901C197.939 139.414 197.861 138.858 197.861 138.233V135.697C197.861 135.091 197.932 134.553 198.073 134.084C198.219 133.615 198.429 133.22 198.702 132.901C198.98 132.578 199.313 132.332 199.7 132.163C200.088 131.994 200.523 131.91 201.006 131.91C201.621 131.91 202.143 132.022 202.571 132.245C203 132.468 203.335 132.794 203.576 133.223C203.818 133.646 203.961 134.164 204.007 134.774H203.48C203.43 134.287 203.314 133.868 203.132 133.517C202.95 133.161 202.685 132.888 202.339 132.696C201.997 132.5 201.553 132.402 201.006 132.402C200.587 132.402 200.215 132.475 199.892 132.621C199.568 132.767 199.295 132.981 199.071 133.264C198.848 133.546 198.677 133.89 198.559 134.296C198.445 134.701 198.388 135.164 198.388 135.684V138.233C198.388 138.776 198.449 139.259 198.572 139.683C198.7 140.102 198.88 140.46 199.112 140.756C199.349 141.048 199.636 141.271 199.974 141.426C200.311 141.576 200.689 141.651 201.108 141.651C201.55 141.651 201.933 141.592 202.257 141.474C202.585 141.351 202.852 141.214 203.057 141.063C203.262 140.909 203.405 140.785 203.487 140.694V137.905H201.081V137.406H204.007ZM206.365 132.047H209.079C209.644 132.047 210.136 132.159 210.556 132.382C210.975 132.605 211.301 132.933 211.533 133.366C211.77 133.795 211.889 134.321 211.889 134.945C211.889 135.419 211.802 135.85 211.629 136.237C211.46 136.625 211.228 136.946 210.932 137.201C210.635 137.452 210.3 137.611 209.927 137.68L209.708 137.782H206.646L206.632 137.283H209.298C209.758 137.283 210.141 137.172 210.446 136.948C210.752 136.72 210.982 136.429 211.137 136.073C211.292 135.713 211.369 135.337 211.369 134.945C211.369 134.444 211.278 134.016 211.096 133.66C210.913 133.3 210.651 133.024 210.31 132.833C209.968 132.637 209.558 132.539 209.079 132.539H206.892V142H206.365V132.047ZM211.69 142L209.448 137.591L210.022 137.584L212.244 141.904V142H211.69ZM216.872 132.464L213.905 142H213.352L216.523 132.047H216.934L216.872 132.464ZM219.668 142L216.708 132.464L216.653 132.047H217.057L220.222 142H219.668ZM218.978 138.603V139.095H214.63V138.603H218.978ZM221.958 132.047H222.491L225.766 141.166L229.04 132.047H229.566L225.971 142H225.567L221.958 132.047ZM221.787 132.047H222.266L222.313 137.365V142H221.787V132.047ZM229.272 132.047H229.765V142H229.238V137.365L229.272 132.047Z" fill="#F5F2ED"/>
<path fill-rule="evenodd" clip-rule="evenodd" d="M200.5 40C189.731 40 181 48.7311 181 59.5C181 70.2689 189.731 79 200.5 79C211.269 79 220 70.2689 220 59.5C220 48.7311 211.269 40 200.5 40ZM209.538 53.2616C209.246 56.3443 207.975 63.8274 207.33 67.2805C207.057 68.743 206.517 69.2321 205.997 69.2792C204.865 69.3832 204.005 68.5301 202.908 67.8119C201.192 66.6874 200.222 65.987 198.556 64.8885C196.631 63.6194 197.879 62.9222 198.976 61.7831C199.263 61.4841 204.252 56.9455 204.35 56.5344C204.361 56.4824 204.374 56.2906 204.259 56.1899C204.143 56.0891 203.976 56.1233 203.856 56.1509C203.683 56.1899 200.942 58.0018 195.63 61.5865C194.852 62.1211 194.146 62.3811 193.514 62.3681C192.819 62.3535 191.48 61.9749 190.483 61.6499C189.263 61.2534 188.291 61.0421 188.376 60.3694C188.42 60.0184 188.902 59.6592 189.825 59.292C195.51 56.8155 199.301 55.1824 201.197 54.3926C206.613 52.1404 207.738 51.7488 208.472 51.7358C209.392 51.7228 209.613 52.4816 209.538 53.2616Z" fill="#F5F2ED"/>
</svg>
