<svg width="40" height="40" viewBox="0 0 40 40" fill="none" xmlns="http://www.w3.org/2000/svg">
<g clip-path="url(#clip0_170_9)">
<path d="M35.905 11.8401C35.9283 12.1917 35.9283 12.5451 35.9283 12.9001C35.9283 23.7451 27.6717 36.2501 12.5783 36.2501V36.2434C8.12 36.2501 3.75333 34.9734 0 32.5651C0.648333 32.6434 1.3 32.6817 1.95333 32.6834C5.65 32.6867 9.24 31.4467 12.145 29.1634C8.63333 29.0967 5.55333 26.8067 4.47833 23.4634C5.70833 23.7001 6.975 23.6517 8.18333 23.3234C4.35333 22.5501 1.6 19.1851 1.6 15.2784C1.6 15.2434 1.6 15.2084 1.6 15.1751C2.74167 15.8117 4.01833 16.1634 5.325 16.2017C1.71833 13.7934 0.605 8.99675 2.78333 5.24675C6.95 10.3734 13.0983 13.4901 19.6967 13.8217C19.035 10.9717 19.94 7.98508 22.07 5.98008C25.375 2.87175 30.5733 3.03175 33.6817 6.33675C35.52 5.97508 37.2817 5.30008 38.8933 4.34508C38.28 6.24508 36.9983 7.85841 35.285 8.88508C36.9133 8.69008 38.5017 8.25508 40 7.59175C38.8983 9.24008 37.5117 10.6784 35.905 11.8401Z" fill="#F5F2ED"/>
</g>
<defs>
<clipPath id="clip0_170_9">
<rect width="40" height="40" fill="white"/>
</clipPath>
</defs>
</svg>
