<svg width="400" height="186" viewBox="0 0 400 186" fill="none" xmlns="http://www.w3.org/2000/svg">
<path d="M145.227 100.731V102.09H138.68V100.731H145.227ZM142.656 97.4106V105.692H141.273V97.4106H142.656ZM153.148 95.4575V96.27L149.234 106.833H147.781L151.695 96.645H146.625V95.4575H153.148ZM158.547 102.286V102.208C158.547 101.072 158.659 100.046 158.883 99.1294C159.112 98.2075 159.401 97.4002 159.75 96.7075C160.099 96.0148 160.461 95.4419 160.836 94.9888C161.211 94.5304 161.549 94.1997 161.852 93.9966L162.133 94.9497C161.888 95.1841 161.635 95.507 161.375 95.9185C161.12 96.3299 160.883 96.8351 160.664 97.4341C160.445 98.033 160.268 98.7284 160.133 99.52C159.997 100.312 159.93 101.202 159.93 102.192V102.301C159.93 103.291 159.997 104.184 160.133 104.981C160.268 105.773 160.445 106.471 160.664 107.075C160.883 107.679 161.12 108.192 161.375 108.614C161.635 109.041 161.888 109.379 162.133 109.629L161.852 110.504C161.549 110.301 161.211 109.971 160.836 109.512C160.461 109.059 160.099 108.486 159.75 107.793C159.401 107.106 159.112 106.301 158.883 105.379C158.659 104.458 158.547 103.426 158.547 102.286ZM164.727 105.622H164.836C165.539 105.622 166.104 105.504 166.531 105.27C166.958 105.036 167.279 104.721 167.492 104.325C167.711 103.929 167.857 103.484 167.93 102.989C168.008 102.489 168.047 101.976 168.047 101.45V99.7075C168.047 99.1919 167.997 98.7336 167.898 98.3325C167.805 97.9315 167.677 97.5955 167.516 97.3247C167.359 97.0539 167.18 96.8481 166.977 96.7075C166.779 96.5669 166.576 96.4966 166.367 96.4966C166.102 96.4966 165.867 96.5643 165.664 96.6997C165.461 96.8299 165.289 97.0148 165.148 97.2544C165.013 97.494 164.909 97.7752 164.836 98.0981C164.763 98.4211 164.727 98.7726 164.727 99.1528C164.727 99.4914 164.758 99.8195 164.82 100.137C164.883 100.455 164.979 100.741 165.109 100.997C165.245 101.252 165.411 101.455 165.609 101.606C165.812 101.752 166.052 101.825 166.328 101.825C166.557 101.825 166.779 101.762 166.992 101.637C167.211 101.507 167.409 101.333 167.586 101.114C167.763 100.89 167.909 100.637 168.023 100.356C168.138 100.075 168.206 99.7804 168.227 99.4731H168.875C168.875 99.9054 168.805 100.333 168.664 100.754C168.529 101.171 168.333 101.551 168.078 101.895C167.828 102.239 167.534 102.515 167.195 102.723C166.862 102.926 166.495 103.028 166.094 103.028C165.609 103.028 165.195 102.918 164.852 102.7C164.508 102.481 164.227 102.189 164.008 101.825C163.794 101.46 163.635 101.054 163.531 100.606C163.427 100.153 163.375 99.6945 163.375 99.231C163.375 98.6893 163.438 98.1815 163.562 97.7075C163.688 97.2336 163.872 96.8169 164.117 96.4575C164.367 96.0929 164.68 95.8091 165.055 95.606C165.43 95.4028 165.867 95.3013 166.367 95.3013C166.924 95.3013 167.398 95.4315 167.789 95.6919C168.18 95.9523 168.495 96.3013 168.734 96.7388C168.974 97.1763 169.148 97.6685 169.258 98.2153C169.367 98.7622 169.422 99.3247 169.422 99.9028V100.426C169.422 101.015 169.393 101.614 169.336 102.223C169.284 102.827 169.172 103.405 169 103.958C168.833 104.51 168.583 105.004 168.25 105.442C167.917 105.874 167.471 106.218 166.914 106.473C166.362 106.723 165.669 106.848 164.836 106.848H164.734L164.727 105.622ZM175.5 95.395V106.833H174.117V97.1997L171.727 98.2622V96.9575L175.289 95.395H175.5ZM185.367 100.239V101.973C185.367 102.905 185.294 103.692 185.148 104.333C185.008 104.973 184.805 105.489 184.539 105.879C184.273 106.27 183.953 106.554 183.578 106.731C183.208 106.903 182.792 106.989 182.328 106.989C181.964 106.989 181.622 106.934 181.305 106.825C180.992 106.715 180.711 106.541 180.461 106.301C180.211 106.056 179.997 105.739 179.82 105.348C179.643 104.958 179.508 104.484 179.414 103.926C179.32 103.369 179.273 102.718 179.273 101.973V100.239C179.273 99.3065 179.346 98.5252 179.492 97.895C179.638 97.2648 179.844 96.7596 180.109 96.3794C180.38 95.994 180.701 95.7179 181.07 95.5513C181.445 95.3846 181.862 95.3013 182.32 95.3013C182.69 95.3013 183.031 95.356 183.344 95.4653C183.661 95.5695 183.943 95.7388 184.188 95.9731C184.438 96.2023 184.651 96.5096 184.828 96.895C185.005 97.2752 185.138 97.7414 185.227 98.2935C185.32 98.8455 185.367 99.494 185.367 100.239ZM183.992 102.208V99.9966C183.992 99.4862 183.969 99.0382 183.922 98.6528C183.875 98.2622 183.807 97.9289 183.719 97.6528C183.63 97.3768 183.516 97.1528 183.375 96.981C183.24 96.8091 183.083 96.6841 182.906 96.606C182.729 96.5226 182.534 96.481 182.32 96.481C182.055 96.481 181.818 96.5461 181.609 96.6763C181.406 96.8013 181.232 97.0018 181.086 97.2778C180.945 97.5539 180.839 97.9159 180.766 98.3638C180.693 98.8117 180.656 99.356 180.656 99.9966V102.208C180.656 102.718 180.68 103.168 180.727 103.559C180.779 103.95 180.849 104.288 180.938 104.575C181.031 104.856 181.146 105.088 181.281 105.27C181.417 105.452 181.573 105.588 181.75 105.676C181.927 105.76 182.12 105.801 182.328 105.801C182.604 105.801 182.844 105.734 183.047 105.598C183.255 105.463 183.43 105.252 183.57 104.965C183.711 104.674 183.815 104.301 183.883 103.848C183.956 103.39 183.992 102.843 183.992 102.208ZM190.289 102.208V102.286C190.289 103.426 190.174 104.458 189.945 105.379C189.721 106.301 189.435 107.106 189.086 107.793C188.737 108.486 188.375 109.059 188 109.512C187.625 109.971 187.286 110.301 186.984 110.504L186.703 109.629C186.948 109.395 187.198 109.067 187.453 108.645C187.714 108.228 187.953 107.713 188.172 107.098C188.396 106.489 188.576 105.786 188.711 104.989C188.846 104.187 188.914 103.291 188.914 102.301V102.192C188.914 101.202 188.841 100.309 188.695 99.5122C188.549 98.7101 188.362 98.0044 188.133 97.395C187.904 96.7856 187.661 96.2726 187.406 95.856C187.156 95.4341 186.922 95.1086 186.703 94.8794L186.984 93.9966C187.286 94.1997 187.625 94.5304 188 94.9888C188.375 95.4419 188.737 96.0148 189.086 96.7075C189.435 97.4002 189.721 98.2075 189.945 99.1294C190.174 100.046 190.289 101.072 190.289 102.208ZM202.336 105.645V106.833H195.977V105.793L199.109 101.645C199.495 101.135 199.789 100.702 199.992 100.348C200.195 99.9888 200.336 99.6685 200.414 99.3872C200.492 99.1007 200.531 98.8091 200.531 98.5122C200.531 98.1372 200.471 97.7987 200.352 97.4966C200.232 97.1893 200.057 96.9445 199.828 96.7622C199.599 96.5799 199.323 96.4888 199 96.4888C198.578 96.4888 198.232 96.5877 197.961 96.7856C197.695 96.9784 197.5 97.2492 197.375 97.5981C197.25 97.9471 197.188 98.3481 197.188 98.8013H195.805C195.805 98.1606 195.922 97.5747 196.156 97.0435C196.396 96.5122 196.753 96.0903 197.227 95.7778C197.701 95.4601 198.292 95.3013 199 95.3013C199.609 95.3013 200.13 95.4289 200.562 95.6841C201 95.9341 201.333 96.2882 201.562 96.7466C201.797 97.1997 201.914 97.731 201.914 98.3403C201.914 98.6737 201.867 99.0122 201.773 99.356C201.685 99.6945 201.56 100.033 201.398 100.372C201.242 100.71 201.057 101.043 200.844 101.372C200.63 101.7 200.401 102.023 200.156 102.34L197.633 105.645H202.336ZM210.242 105.645V106.833H203.883V105.793L207.016 101.645C207.401 101.135 207.695 100.702 207.898 100.348C208.102 99.9888 208.242 99.6685 208.32 99.3872C208.398 99.1007 208.438 98.8091 208.438 98.5122C208.438 98.1372 208.378 97.7987 208.258 97.4966C208.138 97.1893 207.964 96.9445 207.734 96.7622C207.505 96.5799 207.229 96.4888 206.906 96.4888C206.484 96.4888 206.138 96.5877 205.867 96.7856C205.602 96.9784 205.406 97.2492 205.281 97.5981C205.156 97.9471 205.094 98.3481 205.094 98.8013H203.711C203.711 98.1606 203.828 97.5747 204.062 97.0435C204.302 96.5122 204.659 96.0903 205.133 95.7778C205.607 95.4601 206.198 95.3013 206.906 95.3013C207.516 95.3013 208.036 95.4289 208.469 95.6841C208.906 95.9341 209.24 96.2882 209.469 96.7466C209.703 97.1997 209.82 97.731 209.82 98.3403C209.82 98.6737 209.773 99.0122 209.68 99.356C209.591 99.6945 209.466 100.033 209.305 100.372C209.148 100.71 208.964 101.043 208.75 101.372C208.536 101.7 208.307 102.023 208.062 102.34L205.539 105.645H210.242ZM218.148 105.645V106.833H211.789V105.793L214.922 101.645C215.307 101.135 215.602 100.702 215.805 100.348C216.008 99.9888 216.148 99.6685 216.227 99.3872C216.305 99.1007 216.344 98.8091 216.344 98.5122C216.344 98.1372 216.284 97.7987 216.164 97.4966C216.044 97.1893 215.87 96.9445 215.641 96.7622C215.411 96.5799 215.135 96.4888 214.812 96.4888C214.391 96.4888 214.044 96.5877 213.773 96.7856C213.508 96.9784 213.312 97.2492 213.188 97.5981C213.062 97.9471 213 98.3481 213 98.8013H211.617C211.617 98.1606 211.734 97.5747 211.969 97.0435C212.208 96.5122 212.565 96.0903 213.039 95.7778C213.513 95.4601 214.104 95.3013 214.812 95.3013C215.422 95.3013 215.943 95.4289 216.375 95.6841C216.812 95.9341 217.146 96.2882 217.375 96.7466C217.609 97.1997 217.727 97.731 217.727 98.3403C217.727 98.6737 217.68 99.0122 217.586 99.356C217.497 99.6945 217.372 100.033 217.211 100.372C217.055 100.71 216.87 101.043 216.656 101.372C216.443 101.7 216.214 102.023 215.969 102.34L213.445 105.645H218.148ZM222.383 101.403V102.59H219.156V101.403H222.383ZM230.172 103.004V104.192H223.219V103.34L227.445 95.4575H228.555L227.445 97.7388L224.758 103.004H230.172ZM228.906 95.4575V106.833H227.523V95.4575H228.906ZM237.93 105.645V106.833H231.57V105.793L234.703 101.645C235.089 101.135 235.383 100.702 235.586 100.348C235.789 99.9888 235.93 99.6685 236.008 99.3872C236.086 99.1007 236.125 98.8091 236.125 98.5122C236.125 98.1372 236.065 97.7987 235.945 97.4966C235.826 97.1893 235.651 96.9445 235.422 96.7622C235.193 96.5799 234.917 96.4888 234.594 96.4888C234.172 96.4888 233.826 96.5877 233.555 96.7856C233.289 96.9784 233.094 97.2492 232.969 97.5981C232.844 97.9471 232.781 98.3481 232.781 98.8013H231.398C231.398 98.1606 231.516 97.5747 231.75 97.0435C231.99 96.5122 232.346 96.0903 232.82 95.7778C233.294 95.4601 233.885 95.3013 234.594 95.3013C235.203 95.3013 235.724 95.4289 236.156 95.6841C236.594 95.9341 236.927 96.2882 237.156 96.7466C237.391 97.1997 237.508 97.731 237.508 98.3403C237.508 98.6737 237.461 99.0122 237.367 99.356C237.279 99.6945 237.154 100.033 236.992 100.372C236.836 100.71 236.651 101.043 236.438 101.372C236.224 101.7 235.995 102.023 235.75 102.34L233.227 105.645H237.93ZM242.164 101.403V102.59H238.938V101.403H242.164ZM249.727 95.4575V96.27L245.812 106.833H244.359L248.273 96.645H243.203V95.4575H249.727ZM255.469 95.395V106.833H254.086V97.1997L251.695 98.2622V96.9575L255.258 95.395H255.469Z" fill="#F5F2ED"/>
<rect x="1.5" y="1.5" width="397" height="183" stroke="#DC9271" stroke-width="3"/>
<path d="M169.322 139.018L171.236 131.457H171.674L171.243 133.296L169.22 141.41H168.796L169.322 139.018ZM167.032 131.457L168.687 138.997L169.138 141.41H168.693L166.485 131.457H167.032ZM174.278 138.99L175.919 131.457H176.459L174.258 141.41H173.786L174.278 138.99ZM171.742 131.457L173.636 139.018L174.148 141.41H173.725L171.742 133.296L171.305 131.457H171.742ZM183.89 136.037V136.536H178.523V136.037H183.89ZM178.688 131.457V141.41H178.168V131.457H178.688ZM184.279 131.457V141.41H183.753V131.457H184.279ZM189.481 131.874L186.515 141.41H185.961L189.133 131.457H189.543L189.481 131.874ZM192.277 141.41L189.317 131.874L189.263 131.457H189.666L192.831 141.41H192.277ZM191.587 138.013V138.505H187.239V138.013H191.587ZM196.188 131.457V141.41H195.668V131.457H196.188ZM199.154 131.457V131.949H192.701V131.457H199.154ZM205.614 138.997C205.614 138.701 205.571 138.437 205.484 138.204C205.402 137.967 205.266 137.755 205.074 137.568C204.887 137.382 204.637 137.211 204.322 137.056C204.012 136.896 203.63 136.739 203.174 136.584C202.75 136.447 202.365 136.299 202.019 136.14C201.677 135.98 201.385 135.796 201.144 135.586C200.902 135.376 200.715 135.128 200.583 134.841C200.455 134.549 200.392 134.207 200.392 133.815C200.392 133.428 200.462 133.082 200.604 132.776C200.745 132.471 200.941 132.209 201.191 131.99C201.442 131.771 201.738 131.605 202.08 131.491C202.426 131.377 202.802 131.32 203.208 131.32C203.778 131.32 204.274 131.434 204.698 131.662C205.122 131.885 205.452 132.207 205.689 132.626C205.926 133.041 206.045 133.537 206.045 134.116H205.532C205.532 133.642 205.437 133.234 205.245 132.893C205.058 132.546 204.792 132.28 204.445 132.093C204.099 131.906 203.687 131.812 203.208 131.812C202.711 131.812 202.292 131.906 201.95 132.093C201.608 132.275 201.351 132.514 201.178 132.811C201.005 133.107 200.918 133.43 200.918 133.781C200.918 134.073 200.966 134.333 201.062 134.561C201.162 134.788 201.31 134.993 201.506 135.176C201.706 135.354 201.957 135.518 202.258 135.668C202.563 135.818 202.923 135.96 203.338 136.092C203.812 136.233 204.224 136.393 204.575 136.57C204.926 136.748 205.218 136.953 205.45 137.186C205.683 137.418 205.856 137.682 205.97 137.979C206.088 138.275 206.147 138.61 206.147 138.983C206.147 139.394 206.075 139.758 205.929 140.077C205.783 140.392 205.58 140.658 205.32 140.877C205.061 141.096 204.755 141.262 204.404 141.376C204.053 141.49 203.675 141.547 203.27 141.547C202.905 141.547 202.538 141.494 202.169 141.39C201.8 141.285 201.463 141.116 201.157 140.884C200.852 140.651 200.606 140.346 200.419 139.968C200.237 139.59 200.146 139.127 200.146 138.58H200.672C200.672 139.049 200.752 139.444 200.911 139.763C201.071 140.077 201.278 140.33 201.533 140.521C201.788 140.708 202.069 140.843 202.374 140.925C202.679 141.007 202.978 141.048 203.27 141.048C203.734 141.048 204.142 140.961 204.493 140.788C204.844 140.615 205.118 140.376 205.313 140.07C205.514 139.76 205.614 139.403 205.614 138.997ZM210.577 131.874L207.61 141.41H207.057L210.229 131.457H210.639L210.577 131.874ZM213.373 141.41L210.413 131.874L210.358 131.457H210.762L213.927 141.41H213.373ZM212.683 138.013V138.505H208.335V138.013H212.683ZM218.24 137.268H215.772V136.762H218.24C218.778 136.762 219.211 136.657 219.539 136.447C219.872 136.233 220.113 135.948 220.264 135.593C220.419 135.233 220.496 134.836 220.496 134.403C220.496 133.957 220.419 133.549 220.264 133.18C220.113 132.806 219.872 132.507 219.539 132.284C219.211 132.061 218.778 131.949 218.24 131.949H216.012V141.41H215.492V131.457H218.24C218.851 131.457 219.361 131.58 219.771 131.826C220.182 132.068 220.492 132.41 220.701 132.852C220.915 133.289 221.022 133.802 221.022 134.39C221.022 134.982 220.918 135.495 220.708 135.928C220.498 136.361 220.188 136.693 219.778 136.926C219.368 137.154 218.855 137.268 218.24 137.268ZM225.705 137.268H223.237V136.762H225.705C226.243 136.762 226.676 136.657 227.004 136.447C227.337 136.233 227.578 135.948 227.729 135.593C227.883 135.233 227.961 134.836 227.961 134.403C227.961 133.957 227.883 133.549 227.729 133.18C227.578 132.806 227.337 132.507 227.004 132.284C226.676 132.061 226.243 131.949 225.705 131.949H223.477V141.41H222.957V131.457H225.705C226.316 131.457 226.826 131.58 227.236 131.826C227.646 132.068 227.956 132.41 228.166 132.852C228.38 133.289 228.487 133.802 228.487 134.39C228.487 134.982 228.382 135.495 228.173 135.928C227.963 136.361 227.653 136.693 227.243 136.926C226.833 137.154 226.32 137.268 225.705 137.268Z" fill="#F5F2ED"/>
<g clip-path="url(#clip0_155_7)">
<path fill-rule="evenodd" clip-rule="evenodd" d="M214.252 43.8135C210.603 40.1533 205.75 38.1359 200.581 38.1343C189.929 38.1343 181.26 46.8193 181.255 57.4972C181.253 60.91 182.144 64.2413 183.836 67.1786L181.093 77.2118L191.337 74.5187C194.159 76.0623 197.338 76.8747 200.571 76.8764H200.58C211.23 76.8764 219.901 68.1898 219.906 57.5118C219.909 52.339 217.9 47.4722 214.252 43.8135ZM200.581 73.6053H200.575C197.692 73.6053 194.866 72.8286 192.399 71.3616L191.813 71.0131L185.734 72.6104L187.357 66.6706L186.975 66.0617C185.366 63.4988 184.518 60.5371 184.52 57.4972C184.523 48.6233 191.73 41.4038 200.589 41.4038C204.879 41.4038 208.913 43.0808 211.945 46.1224C214.977 49.1655 216.646 53.2084 216.644 57.5086C216.639 66.3857 209.434 73.6053 200.581 73.6053ZM209.392 61.5515C208.909 61.3089 206.535 60.1382 206.092 59.977C205.65 59.8158 205.328 59.7344 205.004 60.218C204.681 60.7015 203.758 61.7925 203.475 62.1165C203.194 62.4389 202.911 62.4796 202.429 62.237C201.946 61.9944 200.389 61.4847 198.545 59.8353C197.11 58.5523 196.14 56.968 195.859 56.4828C195.578 55.9976 195.83 55.7371 196.07 55.4961C196.288 55.2795 196.553 54.9311 196.795 54.6478C197.039 54.3677 197.118 54.1658 197.281 53.8418C197.442 53.5194 197.362 53.2361 197.24 52.9935C197.118 52.7525 196.153 50.3704 195.752 49.4016C195.36 48.4573 194.962 48.5859 194.665 48.5712C194.383 48.5566 194.062 48.5549 193.738 48.5549C193.417 48.5549 192.893 48.6754 192.451 49.1606C192.009 49.6459 190.761 50.8166 190.761 53.197C190.761 55.5791 192.492 57.8798 192.732 58.2022C192.973 58.5246 196.137 63.4125 200.981 65.5081C202.133 66.0063 203.033 66.3043 203.734 66.5273C204.891 66.8953 205.944 66.8432 206.776 66.7195C207.704 66.5811 209.632 65.5488 210.035 64.4188C210.438 63.2888 210.438 62.3184 210.317 62.1181C210.196 61.9146 209.875 61.7941 209.392 61.5515Z" fill="#F5F2ED"/>
</g>
<defs>
<clipPath id="clip0_155_7">
<rect width="39" height="39.0775" fill="white" transform="translate(181 38.1343)"/>
</clipPath>
</defs>
</svg>
